<svg id="visual" viewBox="0 0 900 600" width="900" height="600" xmlns="http://www.w3.org/2000/svg" xmlns:xlink="http://www.w3.org/1999/xlink" version="1.1"><rect x="0" y="0" width="900" height="600" fill="#e5c2e6"></rect><defs><linearGradient id="grad1_0" x1="33.3%" y1="0%" x2="100%" y2="100%"><stop offset="20%" stop-color="#e5c2e6" stop-opacity="1"></stop><stop offset="80%" stop-color="#e5c2e6" stop-opacity="1"></stop></linearGradient></defs><defs><linearGradient id="grad2_0" x1="0%" y1="0%" x2="66.7%" y2="100%"><stop offset="20%" stop-color="#e5c2e6" stop-opacity="1"></stop><stop offset="80%" stop-color="#e5c2e6" stop-opacity="1"></stop></linearGradient></defs><g transform="translate(900, 0)"><path d="M0 324.5C-19.8 326.1 -39.7 327.7 -47.2 298.3C-54.8 268.9 -50.1 208.6 -67.4 207.3C-84.6 206.1 -123.9 263.9 -132.6 260.2C-141.2 256.4 -119.3 191 -124 170.7C-128.8 150.4 -160.2 175 -183.8 183.8C-207.5 192.7 -223.5 185.6 -247.6 179.9C-271.7 174.1 -303.9 169.6 -289.1 147.3C-274.3 125.1 -212.4 85.1 -204.5 66.4C-196.6 47.8 -242.6 50.5 -271.6 43C-300.6 35.5 -312.6 17.8 -324.5 0L0 0Z" fill="#7e70c9"></path></g><g transform="translate(0, 600)"><path d="M0 -324.5C19.1 -321.6 38.2 -318.7 46.1 -291.4C54.1 -264 50.8 -212.2 71.1 -218.7C91.4 -225.2 135.3 -290 147.3 -289.1C159.3 -288.3 139.4 -221.7 141.1 -194.2C142.7 -166.6 165.9 -178 169.7 -169.7C173.5 -161.4 157.9 -133.3 175.6 -127.5C193.2 -121.8 244.1 -138.3 261.1 -133C278 -127.7 261 -100.5 251.1 -81.6C241.2 -62.7 238.4 -52.1 251.9 -39.9C265.3 -27.7 294.9 -13.8 324.5 0L0 0Z" fill="#7e70c9"></path></g></svg>