<svg style="object-fit:cover" id="my-svg" version="1" baseProfile="full" width="100%" height="100%" viewBox="0 0 1600 789" xmlns="http://www.w3.org/2000/svg"><rect width="1600" height="789" fill="#d9bce6"/><defs><linearGradient id="linear-gradient" x1="0" x2="1" y1="0" y2="0"><stop offset="0%" stop-color="#9d487680"/><stop offset="100%" stop-color="#b42ac680"/></linearGradient></defs><path transform="scale(1, 1)" d="M 0,789 V 0,394 C 180.26190476190476,462.57142857142856 360.5238095238095,531.1428571428571 474,508 C 587.4761904761905,484.85714285714283 634.1666666666665,369.99999999999994 735,342 C 835.8333333333335,314.00000000000006 990.8095238095239,372.85714285714283 1144,396 C 1297.1904761904761,419.14285714285717 1448.595238095238,406.57142857142856 1600,394 C 1600,394 1600,789 1600,789 Z" stroke="none" stroke-width="0" fill="url(#linear-gradient)" class="transition-all duration-300 ease-in-out delay-150" style="transform-origin: center center;"/><defs><linearGradient id="linear-gradient" x1="0" x2="1" y1="0" y2="0"><stop offset="0%" stop-color="#9d487690"/><stop offset="100%" stop-color="#b42ac690"/></linearGradient></defs><path transform="scale(1, 1)" d="M 0,789 V 0,591 C 162.47619047619048,566.1428571428571 324.95238095238096,541.2857142857143 457,585 C 589.047619047619,628.7142857142857 690.6666666666666,740.9999999999999 798,723 C 905.3333333333334,705.0000000000001 1018.3809523809525,556.7142857142858 1153,513 C 1287.6190476190475,469.2857142857143 1443.8095238095239,530.1428571428571 1600,591 C 1600,591 1600,789 1600,789 Z" stroke="none" stroke-width="0" fill="url(#linear-gradient)" class="transition-all duration-300 ease-in-out delay-150" style="transform-origin: center center;"/><defs><linearGradient id="linear-gradient" x1="0" x2="1" y1="0" y2="0"><stop offset="0%" stop-color="#9d4876ff"/><stop offset="100%" stop-color="#b42ac6ff"/></linearGradient></defs><path transform="scale(1, 1)" d="M 0,789 V 0,887 C 150.5119047619047,931.3571428571429 301.0238095238094,975.7142857142857 450,981 C 598.9761904761906,986.2857142857143 746.4166666666667,952.5 865,950 C 983.5833333333333,947.5 1073.3095238095239,976.2857142857143 1191,971 C 1308.6904761904761,965.7142857142857 1454.345238095238,926.3571428571429 1600,887 C 1600,887 1600,789 1600,789 Z" stroke="none" stroke-width="0" fill="url(#linear-gradient)" class="transition-all duration-300 ease-in-out delay-150" style="transform-origin: center center;"/></svg>